<svg version="1.1"
     baseProfile="full"
     width="250" height="300"
     xmlns="http://www.w3.org/2000/svg"
>

  <rect width="100%" height="100%" fill="none" />

  <polyline 
    points="155 60 155 30 55 30 55 240"
    fill="none"
    stroke="darkslategray"
    stroke-width="6"
    stroke-linecap="round"
    stroke-linejoin="round"
  />

  <g stroke="gray" stroke-width="4" stroke-linecap="round" fill="none">
    <line x1="155" x2="155" y1="90" y2="170" stroke-linecap="round" />
    <polyline points="130 115 155 95 180 115" />
    <polyline points="130 190 155 170 180 190" />
  </g>

  <circle 
    cx="154.5" cy="75.5" r="15" 
    fill="black"
    fill-opacity="0.6" 
    display="block" 
  />
  <circle cx="155" cy="75" r="15" fill="gray" display="block" />
  <circle cx="150" cy="70" r="2" fill="white" />
  <circle cx="160" cy="70" r="2" fill="white" />
  <path 
    d="M 148 80 A 8 8 0 0 0 162 80" 
    fill="none" 
    stroke="white" 
    stroke-width="2"
    stroke-linecap="round" 
    display="none"
  />
  <path 
    d="M 148 80 A 8 8 0 0 1 162 80" 
    fill="none" 
    stroke="white" 
    stroke-width="2"
    stroke-linecap="round"
    display="block" 
  />
  
  <line 
    x1="100" x2="210" 
    y1="98" y2="86" 
    stroke="red"
    stroke-width="2"
    stroke-linecap="round"
    stroke-dasharray="5,5"
    display="block"
    id="lineDegola"
  />

  <rect 
    x="35" y="240" 
    width="160" height="15" 
    fill="darkolivegreen"
    stroke="darkolivegreen"
    stroke-width="4" 
    stroke-linejoin="round"
  />
</svg>
